<svg width="15" height="14" viewBox="0 0 15 14" fill="none" xmlns="http://www.w3.org/2000/svg">
<path d="M7.00292 7.33514C7.29532 7.58808 7.70468 7.58808 7.99708 7.33514L14.7807 1.41644C15.0731 1.1635 15.0731 0.758808 14.7807 0.556459L14.3713 0.202349C14.0789 -0.0505872 13.6696 -0.0505872 13.3772 0.202349L7.52924 5.36224L1.62281 0.151762C1.33041 -0.0505872 0.921053 -0.0505872 0.628655 0.151762L0.219298 0.556459C-0.0730994 0.758808 -0.0730994 1.1635 0.219298 1.41644L7.00292 7.33514ZM7.99708 13.8103L14.7807 7.8916C15.0731 7.63866 15.0731 7.23397 14.7807 7.03162L14.3713 6.62692C14.0789 6.42457 13.6696 6.42457 13.3772 6.62692L7.52924 11.8374L1.62281 6.67751C1.33041 6.42457 0.921053 6.42457 0.628655 6.67751L0.219298 7.03162C-0.0730994 7.23397 -0.0730994 7.63866 0.219298 7.8916L7.00292 13.8103C7.29532 14.0632 7.70468 14.0632 7.99708 13.8103Z" fill="#222529"/>
</svg>
