<svg width="16" height="11" viewBox="0 0 16 11" fill="none" xmlns="http://www.w3.org/2000/svg">
<path d="M10.3711 0.328125L9.66797 1.03125C9.52734 1.20703 9.52734 1.45312 9.70312 1.62891L12.5156 4.33594H0.421875C0.175781 4.33594 0 4.54688 0 4.75781V5.74219C0 5.98828 0.175781 6.16406 0.421875 6.16406H12.5156L9.70312 8.90625C9.52734 9.08203 9.52734 9.32812 9.66797 9.50391L10.3711 10.207C10.5469 10.3477 10.793 10.3477 10.9688 10.207L15.6094 5.56641C15.75 5.39062 15.75 5.14453 15.6094 4.96875L10.9688 0.328125C10.793 0.1875 10.5469 0.1875 10.3711 0.328125Z" fill="#E56B47"/>
</svg>