<svg width="19" height="25" viewBox="0 0 19 25" fill="none" xmlns="http://www.w3.org/2000/svg">
<path d="M11.0833 0H7.91667C3.51302 0 0 3.51562 0 7.8125V17.1875C0 21.5332 3.51302 25 7.91667 25H11.0833C15.4375 25 19 21.5332 19 17.1875V7.8125C19 3.51562 15.4375 0 11.0833 0ZM17.4167 17.1875C17.3672 20.6543 14.5469 23.4375 11.0833 23.4375H7.91667C4.40365 23.4375 1.58333 20.6543 1.58333 17.1875V7.8125C1.58333 4.39453 4.40365 1.61133 7.91667 1.5625H11.0833C14.5469 1.61133 17.3672 4.39453 17.4167 7.8125V17.1875ZM9.5 3.90625C8.16406 3.95508 7.125 4.98047 7.125 6.25V7.8125C7.125 9.13086 8.16406 10.1562 9.5 10.1562C10.7865 10.1562 11.875 9.13086 11.875 7.8125V6.25C11.8255 4.98047 10.7865 3.95508 9.5 3.90625ZM10.2917 7.8125C10.2917 8.25195 9.89583 8.59375 9.5 8.59375C9.05469 8.59375 8.70833 8.25195 8.70833 7.8125V6.25C8.70833 5.85937 9.05469 5.46875 9.5 5.46875C9.89583 5.46875 10.2917 5.85937 10.2917 6.25V7.8125Z" fill="#222529"/>
</svg>
