<svg width="110" height="73" viewBox="0 0 110 73" fill="none" xmlns="http://www.w3.org/2000/svg">
<path d="M86.719 72.576C77.5536 72.576 70.6207 69.504 65.9205 63.36C61.9253 58.176 59.9277 51.84 59.9277 44.352C59.9277 34.752 62.8654 26.112 68.7406 18.432C74.8509 10.752 84.0163 4.60801 96.2369 0L99.4095 5.18401C92.1242 7.68001 85.7789 11.616 80.3737 16.992C75.2034 22.368 72.6183 27.84 72.6183 33.408C72.6183 35.712 72.9708 37.728 73.6759 39.456C77.436 36.96 81.7837 35.712 86.719 35.712C93.0643 35.712 98.352 37.44 102.582 40.896C107.047 44.16 109.28 48.576 109.28 54.144C109.28 59.328 107.047 63.744 102.582 67.392C98.352 70.848 93.0643 72.576 86.719 72.576ZM26.7912 72.576C17.6258 72.576 10.693 69.504 5.99277 63.36C1.99759 58.176 0 51.84 0 44.352C0 34.752 2.93763 26.112 8.8129 18.432C14.9232 10.752 24.0886 4.60801 36.3092 0L39.4818 5.18401C32.1965 7.68001 25.8512 11.616 20.4459 16.992C15.2757 22.368 12.6906 27.84 12.6906 33.408C12.6906 35.712 13.0431 37.728 13.7481 39.456C17.5083 36.96 21.856 35.712 26.7912 35.712C33.1365 35.712 38.4243 37.44 42.6545 40.896C47.1197 44.16 49.3523 48.576 49.3523 54.144C49.3523 59.328 47.1197 63.744 42.6545 67.392C38.4243 70.848 33.1365 72.576 26.7912 72.576Z" fill="#E3EBF2"/>
</svg>
