<svg width="18" height="56" viewBox="0 0 18 56" fill="none" xmlns="http://www.w3.org/2000/svg">
<rect width="18" height="56" fill="white"/>
<path d="M10.5 6H7.5C3.32812 6 0 9.375 0 13.5V22.5C0 26.6719 3.32812 30 7.5 30H10.5C14.625 30 18 26.6719 18 22.5V13.5C18 9.375 14.625 6 10.5 6ZM16.5 22.5C16.4531 25.8281 13.7812 28.5 10.5 28.5H7.5C4.17188 28.5 1.5 25.8281 1.5 22.5V13.5C1.5 10.2188 4.17188 7.54688 7.5 7.5H10.5C13.7812 7.54688 16.4531 10.2188 16.5 13.5V22.5ZM9 9.75C7.73438 9.79688 6.75 10.7812 6.75 12V13.5C6.75 14.7656 7.73438 15.75 9 15.75C10.2188 15.75 11.25 14.7656 11.25 13.5V12C11.2031 10.7812 10.2188 9.79688 9 9.75ZM9.75 13.5C9.75 13.9219 9.375 14.25 9 14.25C8.57812 14.25 8.25 13.9219 8.25 13.5V12C8.25 11.625 8.57812 11.25 9 11.25C9.375 11.25 9.75 11.625 9.75 12V13.5Z" fill="#222529"/>
<path d="M8.57812 44.3281C8.8125 44.5625 9.14062 44.5625 9.375 44.3281L14.8125 38.8438C15.0469 38.6094 15.0469 38.2344 14.8125 38.0469L14.4844 37.7188C14.25 37.4844 13.9219 37.4844 13.6875 37.7188L9 42.5L4.26562 37.6719C4.03125 37.4844 3.70312 37.4844 3.46875 37.6719L3.14062 38.0469C2.90625 38.2344 2.90625 38.6094 3.14062 38.8438L8.57812 44.3281ZM9.375 50.3281L14.8125 44.8438C15.0469 44.6094 15.0469 44.2344 14.8125 44.0469L14.4844 43.6719C14.25 43.4844 13.9219 43.4844 13.6875 43.6719L9 48.5L4.26562 43.7188C4.03125 43.4844 3.70312 43.4844 3.46875 43.7188L3.14062 44.0469C2.90625 44.2344 2.90625 44.6094 3.14062 44.8438L8.57812 50.3281C8.8125 50.5625 9.14062 50.5625 9.375 50.3281Z" fill="#222529"/>
</svg>
